<?xml version="1.0" encoding="UTF-8"?>
<svg width="16px" height="16px" viewBox="0 0 16 16" version="1.1" xmlns="http://www.w3.org/2000/svg" xmlns:xlink="http://www.w3.org/1999/xlink">
    <title>icon/01公共图标/24px/关闭</title>
    <g id="页面-1" stroke="none" stroke-width="1" fill="none" fill-rule="evenodd">
        <g id="etherpad提示条" transform="translate(-1892.000000, -12.000000)">
            <g id="编组-55" transform="translate(0.000000, -0.000000)">
                <g id="编组" transform="translate(1888.000000, 8.000000)">
                    <rect id="矩形" x="0" y="0" width="24" height="24"></rect>
                    <path d="M19.1818019,4.18180195 C19.3575379,4.00606602 19.6424621,4.00606602 19.8181981,4.18180195 C19.9841709,4.34777477 19.9933916,4.61114087 19.8458602,4.78793517 L19.8181981,4.81819805 L4.81819805,19.8181981 C4.64246212,19.993934 4.35753788,19.993934 4.18180195,19.8181981 C4.01582912,19.6522252 4.00660841,19.3888591 4.15413981,19.2120648 L4.18180195,19.1818019 L19.1818019,4.18180195 Z" id="路径-8" fill="#FFFFFF" fill-rule="nonzero"></path>
                    <path d="M13.295125,12.698125 L19.7983107,19.2016893 C19.9630631,19.3664418 19.9630631,19.6335582 19.7983107,19.7983107 C19.6432496,19.9533718 19.397513,19.962493 19.2317842,19.8256744 L19.2016893,19.7983107 L12.698125,13.295125 L13.295125,12.698125 Z M4.76821578,4.1743256 L4.79831067,4.20168933 L12.588125,11.991125 L11.991125,12.588125 L4.20168933,4.79831067 C4.03693689,4.63355824 4.03693689,4.36644176 4.20168933,4.20168933 C4.35675044,4.04662821 4.60248697,4.03750697 4.76821578,4.1743256 Z" id="形状结合" fill="#FFFFFF" fill-rule="nonzero"></path>
                </g>
            </g>
        </g>
    </g>
</svg>