<?xml version="1.0" encoding="UTF-8"?>
<svg width="24px" height="24px" viewBox="0 0 24 24" version="1.1" xmlns="http://www.w3.org/2000/svg" xmlns:xlink="http://www.w3.org/1999/xlink">
    <title>编组 58</title>
    <g id="页面-1" stroke="none" stroke-width="1" fill="none" fill-rule="evenodd">
        <g id="etherpad提示条" transform="translate(-8.000000, -8.000000)">
            <g id="编组-55" transform="translate(0.000000, -0.000000)">
                <g id="编组-58" transform="translate(8.000000, 8.000000)">
                    <rect id="矩形" x="0" y="0" width="24" height="24"></rect>
                    <path d="M13.3311975,19.3465522 C13.7177968,19.3465522 14.0311975,19.6599529 14.0311975,20.0465522 C14.0311975,20.4009349 13.7678539,20.6938104 13.4261833,20.740162 L13.3311975,20.7465522 L10.7744668,20.7465522 C10.3878675,20.7465522 10.0744668,20.4331515 10.0744668,20.0465522 C10.0744668,19.6921695 10.3378104,19.399294 10.679481,19.3529424 L10.7744668,19.3465522 L13.3311975,19.3465522 Z M12.0528322,3.1303747 C12.8056722,3.1303747 13.4574634,3.5299479 13.7731388,4.11199435 C16.4337761,4.81176862 18.413287,7.09649081 18.5170126,9.847624 L18.5212895,10.0748718 L18.5212895,11.1413964 C18.5212895,11.5279957 18.2078888,11.8413964 17.8212895,11.8413964 C17.4669068,11.8413964 17.1740313,11.5780528 17.1276797,11.2363822 L17.1212895,11.1413964 L17.1212895,10.0748718 C17.1212895,7.44048958 14.8599278,5.29022283 12.0532725,5.29022283 C9.3204766,5.29022283 7.10465219,7.32880675 6.98992237,9.86793036 L6.98525553,10.0748718 L6.98525553,15.6029806 L5.86095652,17.3833747 L18.2429565,17.3833747 L17.1212895,15.6135044 L17.1212895,13.7289332 C17.1212895,13.3423339 17.4346902,13.0289332 17.8212895,13.0289332 C18.1756722,13.0289332 18.4685477,13.2922768 18.5148993,13.6339473 L18.5212895,13.7289332 L18.5209565,15.2073747 L19.7244013,17.1060466 L19.7869447,17.2307136 C20.0197552,17.8396015 19.6923406,18.5066335 19.0788862,18.7187099 C18.99523,18.7476305 18.908676,18.7670972 18.8209034,18.7768615 L18.6885406,18.7842004 L5.41699495,18.7842004 C4.77681048,18.7842004 4.24395652,18.2775242 4.24395652,17.6344011 C4.24395652,17.5427711 4.25512308,17.4516987 4.27706175,17.3630903 L4.31799952,17.2322637 L4.38021816,17.1077312 L5.58495652,15.1973747 L5.58525553,10.0748718 C5.58525553,7.22327368 7.59936356,4.83154522 10.3319844,4.11176386 C10.6474395,3.53041483 11.2995524,3.1303747 12.0528322,3.1303747 Z" id="形状结合" fill="#FFFFFF" fill-rule="nonzero"></path>
                </g>
            </g>
        </g>
    </g>
</svg>